<svg width="1000" height="400" viewBox="0 0 1000 400" fill="none" xmlns="http://www.w3.org/2000/svg">
<path d="M780.889 342.981C767.921 349.789 754.085 354.762 739.767 357.803C708.479 364.466 676.275 361.714 646.579 349.837C616.882 337.96 591.621 317.731 573.494 291.37C555.416 264.961 545.629 234.11 545.195 202.1C544.761 170.091 553.776 138.95 571.18 112.106C588.583 85.2626 613.315 64.4056 642.722 51.7563C672.081 39.1069 704.237 35.5342 735.669 41.376C767.101 47.2179 795.834 62.1365 818.733 84.4418C826.35 91.877 838.595 91.7321 846.019 84.1039C853.444 76.4756 853.299 64.2125 845.682 56.7774C817.287 29.0646 781.709 10.6217 742.756 3.37968C703.803 -3.86232 663.982 0.579439 627.536 16.2704C591.138 31.9614 560.478 57.7913 538.88 91.0562C517.282 124.321 506.146 162.897 506.676 202.583C507.207 242.269 519.307 280.507 541.772 313.241C564.19 345.926 595.525 370.984 632.309 385.709C656.028 395.172 681.048 400 706.213 400C720.098 400 734.03 398.552 747.818 395.607C765.559 391.841 782.721 385.661 798.775 377.26C808.224 372.336 811.887 360.652 806.922 351.189C801.956 341.726 790.338 338.057 780.889 342.981Z" fill="#FF778F"/>
<path d="M834.307 346.796C845.037 346.796 853.735 338.085 853.735 327.339C853.735 316.593 845.037 307.882 834.307 307.882C823.577 307.882 814.879 316.593 814.879 327.339C814.879 338.085 823.577 346.796 834.307 346.796Z" fill="#FF778F"/>
<path d="M747.094 123.065C730.51 123.065 715.421 129.487 703.899 139.963C692.377 129.487 677.288 123.065 660.704 123.065C624.74 123.065 595.429 153.047 595.429 189.885V256.173C595.429 268.388 605.312 278.286 617.508 278.286C629.705 278.286 639.588 268.388 639.588 256.173V189.885C639.588 177.38 649.085 167.242 660.752 167.242C672.418 167.242 681.867 177.38 681.867 189.885V254.773V256.173C681.867 268.388 691.75 278.286 703.947 278.286C716.144 278.286 726.027 268.388 726.027 256.173V254.773V189.885C726.027 177.38 735.524 167.242 747.191 167.242C758.857 167.242 768.306 177.38 768.306 189.885V256.173C768.306 268.388 778.189 278.286 790.386 278.286C802.583 278.286 812.466 268.388 812.466 256.173V189.885C812.369 153.047 783.106 123.065 747.094 123.065Z" fill="#FF778F"/>
<path d="M366.919 238.069H318.036L378.056 155.51C378.634 154.737 379.116 153.917 379.55 153.047L381.671 150.054C389.433 139.239 381.72 124.176 368.414 124.176H349.371H274.262C272.767 124.176 271.321 124.369 269.923 124.707C259.462 125.142 251.073 133.735 251.073 144.357C251.073 155.22 259.895 164.055 270.743 164.055H319.626L259.606 246.614C259.028 247.387 258.546 248.207 258.112 249.076L255.991 252.07C248.229 262.885 255.942 277.948 269.248 277.948H288.291H363.448C364.943 277.948 366.389 277.755 367.787 277.417C378.249 276.982 386.637 268.388 386.637 257.767C386.589 246.904 377.815 238.069 366.919 238.069Z" fill="#FF778F"/>
<path d="M995.372 132.964C994.842 132.24 994.263 131.516 993.636 130.888C993.588 130.791 993.492 130.743 993.444 130.647C989.635 126.736 983.995 124.129 977.631 124.129C976.956 124.129 976.281 124.225 975.558 124.419C966.929 125.288 959.842 131.033 957.046 138.951C943.692 127.074 936.027 123.887 921.034 123.887C883.286 123.887 853.782 157.587 853.782 200.846C853.782 243.574 883.045 276.983 920.503 276.983C936.075 276.983 943.547 273.555 956.13 260.761C958.203 270.852 967.17 278.432 977.824 278.432C990.069 278.432 1000 268.486 1000 256.223V146.434C1000 141.317 998.216 136.682 995.372 132.964ZM925.951 238.601C908.74 238.601 895.869 222.717 895.869 200.798C895.869 178.347 908.451 162.753 925.951 162.753C941.571 162.753 952.9 174.292 955.648 192.107V209.247C952.852 226.869 941.378 238.601 925.951 238.601Z" fill="#FF778F"/>
<path d="M65.275 124.032C29.2629 124.032 0 154.014 0 190.9V256.222C0 268.437 9.88284 278.335 22.0797 278.335C34.2766 278.335 44.1594 268.437 44.1594 256.222V190.9C44.1594 178.395 53.6566 168.256 65.275 168.256C76.8933 168.256 86.4387 178.395 86.4387 190.9V256.222C86.4387 268.437 96.3216 278.335 108.518 278.335C120.715 278.335 130.598 268.437 130.598 256.222V190.9C130.502 154.014 101.239 124.032 65.275 124.032Z" fill="#FF778F"/>
<path d="M446.609 124.176C434.412 124.176 424.529 134.073 424.529 146.288V256.174C424.529 268.388 434.412 278.286 446.609 278.286C458.806 278.286 468.689 268.388 468.689 256.174V146.288C468.689 134.073 458.806 124.176 446.609 124.176Z" fill="#FF778F"/>
<path d="M191.726 124.176C179.529 124.176 169.646 134.073 169.646 146.288V257.091C169.646 269.306 179.529 279.203 191.726 279.203C203.923 279.203 213.806 269.306 213.806 257.091V146.288C213.806 134.073 203.923 124.176 191.726 124.176Z" fill="#FF778F"/>
<ellipse cx="191.726" cy="65.5649" rx="22.0797" ry="22.1122" fill="#FF778F"/>
<ellipse cx="446.609" cy="65.5649" rx="22.0797" ry="22.1122" fill="#FF778F"/>
</svg>
